<mxfile host="app.diagrams.net" modified="2021-08-20T09:20:03.353Z" agent="5.0 (X11)" etag="MoQFwHxakEJ2l6zPqYfT" version="14.9.8" type="github" pages="2">
  <diagram id="3u40vcGfyuTVciJH6JJ8" name="ERristr">
    <mxGraphModel dx="2136" dy="1586" grid="1" gridSize="10" guides="1" tooltips="1" connect="1" arrows="1" fold="1" page="0" pageScale="1" pageWidth="1100" pageHeight="850" math="0" shadow="1">
      <root>
        <mxCell id="0" />
        <mxCell id="1" parent="0" />
        <mxCell id="0F26rQ8Cb6kZ93_CO29N-31" value="" style="endArrow=none;html=1;exitX=1.006;exitY=0.81;exitDx=0;exitDy=0;exitPerimeter=0;entryX=0;entryY=0.5;entryDx=0;entryDy=0;" parent="1" source="e-IhfpROFF-9cVEiDw-P-118" edge="1" target="Ymw58HZMhXYJ-UXBoH49-5">
          <mxGeometry width="50" height="50" relative="1" as="geometry">
            <mxPoint x="632.8800000000001" y="370.1399999999999" as="sourcePoint" />
            <mxPoint x="650" y="490" as="targetPoint" />
          </mxGeometry>
        </mxCell>
        <mxCell id="0F26rQ8Cb6kZ93_CO29N-32" value="&lt;font style=&quot;font-size: 19px&quot;&gt;VACCINAZIONE&lt;/font&gt;" style="rectangle;whiteSpace=wrap;html=1;strokeWidth=1;fillColor=#FFFFFF;" parent="1" vertex="1">
          <mxGeometry x="780" y="310.00000000000006" width="150" height="130.96" as="geometry" />
        </mxCell>
        <mxCell id="0F26rQ8Cb6kZ93_CO29N-33" value="" style="endArrow=none;html=1;exitX=1;exitY=0.5;exitDx=0;exitDy=0;" parent="1" edge="1" source="Ymw58HZMhXYJ-UXBoH49-7">
          <mxGeometry width="50" height="50" relative="1" as="geometry">
            <mxPoint x="1050" y="520" as="sourcePoint" />
            <mxPoint x="1077.12" y="369.29" as="targetPoint" />
          </mxGeometry>
        </mxCell>
        <mxCell id="0F26rQ8Cb6kZ93_CO29N-34" value="&lt;font style=&quot;font-size: 18px&quot;&gt;CENTRO VACCINALE&lt;/font&gt;" style="rounded=0;whiteSpace=wrap;html=1;strokeWidth=1;fillColor=#FFFFFF;" parent="1" vertex="1">
          <mxGeometry x="1080" y="340" width="120" height="60" as="geometry" />
        </mxCell>
        <mxCell id="0F26rQ8Cb6kZ93_CO29N-39" value="" style="ellipse;whiteSpace=wrap;html=1;aspect=fixed;strokeWidth=1;" parent="1" vertex="1">
          <mxGeometry x="1080" y="250" width="20" height="20" as="geometry" />
        </mxCell>
        <mxCell id="0F26rQ8Cb6kZ93_CO29N-40" value="" style="ellipse;whiteSpace=wrap;html=1;aspect=fixed;strokeWidth=1;" parent="1" vertex="1">
          <mxGeometry x="1120" y="250" width="20" height="20" as="geometry" />
        </mxCell>
        <mxCell id="0F26rQ8Cb6kZ93_CO29N-41" value="" style="ellipse;whiteSpace=wrap;html=1;aspect=fixed;strokeWidth=1;" parent="1" vertex="1">
          <mxGeometry x="1269.5" y="470" width="20" height="20" as="geometry" />
        </mxCell>
        <mxCell id="0F26rQ8Cb6kZ93_CO29N-42" value="" style="endArrow=none;html=1;entryX=0;entryY=1;entryDx=0;entryDy=0;" parent="1" edge="1">
          <mxGeometry width="50" height="50" relative="1" as="geometry">
            <mxPoint x="1090" y="340" as="sourcePoint" />
            <mxPoint x="1089.9989321881167" y="270.0010678118833" as="targetPoint" />
            <Array as="points" />
          </mxGeometry>
        </mxCell>
        <mxCell id="0F26rQ8Cb6kZ93_CO29N-43" value="" style="endArrow=none;html=1;entryX=0;entryY=1;entryDx=0;entryDy=0;" parent="1" edge="1">
          <mxGeometry width="50" height="50" relative="1" as="geometry">
            <mxPoint x="1129.4099999999999" y="340" as="sourcePoint" />
            <mxPoint x="1129.4089321881165" y="270.00106781188333" as="targetPoint" />
            <Array as="points" />
          </mxGeometry>
        </mxCell>
        <mxCell id="0F26rQ8Cb6kZ93_CO29N-44" value="" style="endArrow=none;html=1;entryX=1;entryY=1;entryDx=0;entryDy=0;" parent="1" edge="1" target="0F26rQ8Cb6kZ93_CO29N-34">
          <mxGeometry width="50" height="50" relative="1" as="geometry">
            <mxPoint x="1279.5" y="470" as="sourcePoint" />
            <mxPoint x="1279.4989321881164" y="400.00106781188333" as="targetPoint" />
            <Array as="points" />
          </mxGeometry>
        </mxCell>
        <mxCell id="0F26rQ8Cb6kZ93_CO29N-46" value="CittÃ " style="text;html=1;align=center;verticalAlign=middle;resizable=0;points=[];autosize=1;strokeColor=none;" parent="1" vertex="1">
          <mxGeometry x="1070" y="230" width="40" height="20" as="geometry" />
        </mxCell>
        <mxCell id="0F26rQ8Cb6kZ93_CO29N-47" value="Nome" style="text;html=1;align=center;verticalAlign=middle;resizable=0;points=[];autosize=1;strokeColor=none;" parent="1" vertex="1">
          <mxGeometry x="1110" y="230" width="50" height="20" as="geometry" />
        </mxCell>
        <mxCell id="0F26rQ8Cb6kZ93_CO29N-48" value="" style="endArrow=none;html=1;" parent="1" edge="1">
          <mxGeometry width="50" height="50" relative="1" as="geometry">
            <mxPoint x="1160" y="310" as="sourcePoint" />
            <mxPoint x="1050" y="310" as="targetPoint" />
            <Array as="points" />
          </mxGeometry>
        </mxCell>
        <mxCell id="0F26rQ8Cb6kZ93_CO29N-51" value="" style="ellipse;whiteSpace=wrap;html=1;aspect=fixed;strokeWidth=1;fillColor=#000000;" parent="1" vertex="1">
          <mxGeometry x="1160" y="300" width="20" height="20" as="geometry" />
        </mxCell>
        <mxCell id="0F26rQ8Cb6kZ93_CO29N-53" value="(1,n)" style="text;html=1;align=center;verticalAlign=middle;resizable=0;points=[];autosize=1;strokeColor=none;" parent="1" vertex="1">
          <mxGeometry x="1040" y="350" width="40" height="20" as="geometry" />
        </mxCell>
        <mxCell id="0F26rQ8Cb6kZ93_CO29N-54" value="" style="endArrow=none;html=1;exitX=0.384;exitY=0.024;exitDx=0;exitDy=0;exitPerimeter=0;" parent="1" edge="1">
          <mxGeometry width="50" height="50" relative="1" as="geometry">
            <mxPoint x="556.0799999999999" y="341.44000000000005" as="sourcePoint" />
            <mxPoint x="556" y="110" as="targetPoint" />
          </mxGeometry>
        </mxCell>
        <mxCell id="0F26rQ8Cb6kZ93_CO29N-55" value="" style="endArrow=none;html=1;exitX=0.384;exitY=0.024;exitDx=0;exitDy=0;exitPerimeter=0;" parent="1" edge="1">
          <mxGeometry width="50" height="50" relative="1" as="geometry">
            <mxPoint x="1190.0800000000002" y="340.00000000000006" as="sourcePoint" />
            <mxPoint x="1190" y="108.56" as="targetPoint" />
          </mxGeometry>
        </mxCell>
        <mxCell id="0F26rQ8Cb6kZ93_CO29N-56" value="" style="endArrow=none;html=1;exitX=0;exitY=0.5;exitDx=0;exitDy=0;entryX=1;entryY=0.5;entryDx=0;entryDy=0;" parent="1" source="0F26rQ8Cb6kZ93_CO29N-58" edge="1" target="Ymw58HZMhXYJ-UXBoH49-3">
          <mxGeometry width="50" height="50" relative="1" as="geometry">
            <mxPoint x="780" y="110" as="sourcePoint" />
            <mxPoint x="560" y="110" as="targetPoint" />
          </mxGeometry>
        </mxCell>
        <mxCell id="0F26rQ8Cb6kZ93_CO29N-57" value="" style="endArrow=none;html=1;entryX=1;entryY=0.5;entryDx=0;entryDy=0;exitX=0;exitY=0.5;exitDx=0;exitDy=0;" parent="1" target="0F26rQ8Cb6kZ93_CO29N-58" edge="1" source="Ymw58HZMhXYJ-UXBoH49-1">
          <mxGeometry width="50" height="50" relative="1" as="geometry">
            <mxPoint x="1190" y="110" as="sourcePoint" />
            <mxPoint x="950" y="110" as="targetPoint" />
            <Array as="points" />
          </mxGeometry>
        </mxCell>
        <mxCell id="0F26rQ8Cb6kZ93_CO29N-58" value="&lt;font style=&quot;font-size: 17px&quot;&gt;CONVOCAZIONE&lt;/font&gt;" style="rectangle;whiteSpace=wrap;html=1;strokeWidth=1;fillColor=#FFFFFF;" parent="1" vertex="1">
          <mxGeometry x="785" y="50" width="140" height="120" as="geometry" />
        </mxCell>
        <mxCell id="0F26rQ8Cb6kZ93_CO29N-59" value="" style="endArrow=none;html=1;entryX=0;entryY=1;entryDx=0;entryDy=0;" parent="1" edge="1">
          <mxGeometry width="50" height="50" relative="1" as="geometry">
            <mxPoint x="815" y="50" as="sourcePoint" />
            <mxPoint x="814.9989321881164" y="-19.99893218811667" as="targetPoint" />
            <Array as="points" />
          </mxGeometry>
        </mxCell>
        <mxCell id="0F26rQ8Cb6kZ93_CO29N-60" value="" style="endArrow=none;html=1;entryX=0;entryY=1;entryDx=0;entryDy=0;" parent="1" edge="1">
          <mxGeometry width="50" height="50" relative="1" as="geometry">
            <mxPoint x="890" y="50" as="sourcePoint" />
            <mxPoint x="889.9989321881164" y="-19.99893218811667" as="targetPoint" />
            <Array as="points" />
          </mxGeometry>
        </mxCell>
        <mxCell id="0F26rQ8Cb6kZ93_CO29N-62" value="" style="endArrow=none;html=1;entryX=0.75;entryY=1;entryDx=0;entryDy=0;" parent="1" edge="1" target="0F26rQ8Cb6kZ93_CO29N-32">
          <mxGeometry width="50" height="50" relative="1" as="geometry">
            <mxPoint x="900" y="630" as="sourcePoint" />
            <mxPoint x="934.9989321881164" y="549.0410678118833" as="targetPoint" />
            <Array as="points" />
          </mxGeometry>
        </mxCell>
        <mxCell id="0F26rQ8Cb6kZ93_CO29N-66" value="" style="ellipse;whiteSpace=wrap;html=1;aspect=fixed;strokeWidth=1;" parent="1" vertex="1">
          <mxGeometry x="880" y="-40" width="20" height="20" as="geometry" />
        </mxCell>
        <mxCell id="0F26rQ8Cb6kZ93_CO29N-67" value="" style="ellipse;whiteSpace=wrap;html=1;aspect=fixed;strokeWidth=1;" parent="1" vertex="1">
          <mxGeometry x="805" y="-40" width="20" height="20" as="geometry" />
        </mxCell>
        <mxCell id="0F26rQ8Cb6kZ93_CO29N-69" value="" style="ellipse;whiteSpace=wrap;html=1;aspect=fixed;strokeWidth=1;fillColor=#000000;" parent="1" vertex="1">
          <mxGeometry x="890" y="629.46" width="20" height="20" as="geometry" />
        </mxCell>
        <mxCell id="0F26rQ8Cb6kZ93_CO29N-71" value="Data" style="text;html=1;align=center;verticalAlign=middle;resizable=0;points=[];autosize=1;strokeColor=none;" parent="1" vertex="1">
          <mxGeometry x="795" y="-60" width="40" height="20" as="geometry" />
        </mxCell>
        <mxCell id="0F26rQ8Cb6kZ93_CO29N-73" value="ID" style="text;html=1;align=center;verticalAlign=middle;resizable=0;points=[];autosize=1;strokeColor=none;" parent="1" vertex="1">
          <mxGeometry x="890" y="655.4599999999999" width="30" height="20" as="geometry" />
        </mxCell>
        <mxCell id="0F26rQ8Cb6kZ93_CO29N-75" value="Ora" style="text;html=1;align=center;verticalAlign=middle;resizable=0;points=[];autosize=1;strokeColor=none;" parent="1" vertex="1">
          <mxGeometry x="870" y="-60" width="40" height="20" as="geometry" />
        </mxCell>
        <mxCell id="0F26rQ8Cb6kZ93_CO29N-76" value="Indirizzo" style="text;html=1;align=center;verticalAlign=middle;resizable=0;points=[];autosize=1;strokeColor=none;" parent="1" vertex="1">
          <mxGeometry x="1282" y="499.08" width="60" height="20" as="geometry" />
        </mxCell>
        <mxCell id="0F26rQ8Cb6kZ93_CO29N-77" value="" style="endArrow=none;html=1;exitX=1.024;exitY=0.507;exitDx=0;exitDy=0;exitPerimeter=0;entryX=0;entryY=0.5;entryDx=0;entryDy=0;" parent="1" target="0F26rQ8Cb6kZ93_CO29N-79" edge="1">
          <mxGeometry width="50" height="50" relative="1" as="geometry">
            <mxPoint x="1200" y="368.96000000000004" as="sourcePoint" />
            <mxPoint x="1357.12" y="368.81999999999994" as="targetPoint" />
          </mxGeometry>
        </mxCell>
        <mxCell id="0F26rQ8Cb6kZ93_CO29N-78" value="&lt;font style=&quot;font-size: 20px&quot;&gt;Possiede&lt;/font&gt;" style="rhombus;whiteSpace=wrap;html=1;strokeWidth=1;fillColor=#FFFFFF;" parent="1" vertex="1">
          <mxGeometry x="1060" y="550" width="160" height="160" as="geometry" />
        </mxCell>
        <mxCell id="0F26rQ8Cb6kZ93_CO29N-79" value="&lt;font style=&quot;font-size: 19px&quot;&gt;Afferenza&lt;/font&gt;" style="rhombus;whiteSpace=wrap;html=1;strokeWidth=1;fillColor=#FFFFFF;" parent="1" vertex="1">
          <mxGeometry x="1360" y="290" width="170" height="160" as="geometry" />
        </mxCell>
        <mxCell id="0F26rQ8Cb6kZ93_CO29N-80" value="" style="endArrow=none;html=1;exitX=1.024;exitY=0.507;exitDx=0;exitDy=0;exitPerimeter=0;" parent="1" edge="1">
          <mxGeometry width="50" height="50" relative="1" as="geometry">
            <mxPoint x="1530" y="370.14000000000004" as="sourcePoint" />
            <mxPoint x="1687.12" y="369.9999999999997" as="targetPoint" />
          </mxGeometry>
        </mxCell>
        <mxCell id="0F26rQ8Cb6kZ93_CO29N-111" value="" style="endArrow=none;html=1;exitX=0.5;exitY=1;exitDx=0;exitDy=0;entryX=0.5;entryY=0;entryDx=0;entryDy=0;" parent="1" source="0F26rQ8Cb6kZ93_CO29N-34" target="0F26rQ8Cb6kZ93_CO29N-78" edge="1">
          <mxGeometry width="50" height="50" relative="1" as="geometry">
            <mxPoint x="1150" y="479.55000000000007" as="sourcePoint" />
            <mxPoint x="1307.12" y="479.40999999999974" as="targetPoint" />
          </mxGeometry>
        </mxCell>
        <mxCell id="0F26rQ8Cb6kZ93_CO29N-112" value="" style="endArrow=none;html=1;exitX=0.5;exitY=1;exitDx=0;exitDy=0;entryX=0.5;entryY=0;entryDx=0;entryDy=0;" parent="1" edge="1">
          <mxGeometry width="50" height="50" relative="1" as="geometry">
            <mxPoint x="1140" y="710" as="sourcePoint" />
            <mxPoint x="1142" y="929" as="targetPoint" />
          </mxGeometry>
        </mxCell>
        <mxCell id="0F26rQ8Cb6kZ93_CO29N-124" value="(1,n)" style="text;html=1;align=center;verticalAlign=middle;resizable=0;points=[];autosize=1;strokeColor=none;" parent="1" vertex="1">
          <mxGeometry x="1212" y="346" width="35" height="18" as="geometry" />
        </mxCell>
        <mxCell id="0F26rQ8Cb6kZ93_CO29N-125" value="(0,n)" style="text;html=1;align=center;verticalAlign=middle;resizable=0;points=[];autosize=1;strokeColor=none;" parent="1" vertex="1">
          <mxGeometry x="1142" y="409" width="35" height="18" as="geometry" />
        </mxCell>
        <mxCell id="0F26rQ8Cb6kZ93_CO29N-141" value="" style="endArrow=none;html=1;exitX=0;exitY=0.5;exitDx=0;exitDy=0;entryX=1;entryY=0.5;entryDx=0;entryDy=0;" parent="1" target="0F26rQ8Cb6kZ93_CO29N-168" edge="1">
          <mxGeometry width="50" height="50" relative="1" as="geometry">
            <mxPoint x="1082" y="959" as="sourcePoint" />
            <mxPoint x="830" y="929" as="targetPoint" />
          </mxGeometry>
        </mxCell>
        <mxCell id="0F26rQ8Cb6kZ93_CO29N-143" value="" style="endArrow=none;html=1;exitX=0;exitY=0.5;exitDx=0;exitDy=0;" parent="1" source="0F26rQ8Cb6kZ93_CO29N-168" edge="1">
          <mxGeometry width="50" height="50" relative="1" as="geometry">
            <mxPoint x="647" y="955.8299999999999" as="sourcePoint" />
            <mxPoint x="507" y="956.42" as="targetPoint" />
            <Array as="points">
              <mxPoint x="627" y="956.42" />
              <mxPoint x="457" y="956.42" />
            </Array>
          </mxGeometry>
        </mxCell>
        <mxCell id="0F26rQ8Cb6kZ93_CO29N-145" value="" style="endArrow=none;html=1;entryX=0.5;entryY=1;entryDx=0;entryDy=0;" parent="1" target="q9LDl1yz-0mYo0iGjOJ9-22" edge="1">
          <mxGeometry width="50" height="50" relative="1" as="geometry">
            <mxPoint x="473" y="985.42" as="sourcePoint" />
            <mxPoint x="60" y="1120" as="targetPoint" />
            <Array as="points">
              <mxPoint x="473" y="1120" />
              <mxPoint x="60" y="1120" />
            </Array>
          </mxGeometry>
        </mxCell>
        <mxCell id="0F26rQ8Cb6kZ93_CO29N-146" value="" style="endArrow=none;html=1;entryX=0.721;entryY=-0.003;entryDx=0;entryDy=0;entryPerimeter=0;" parent="1" edge="1">
          <mxGeometry width="50" height="50" relative="1" as="geometry">
            <mxPoint x="474" y="859.8399999999999" as="sourcePoint" />
            <mxPoint x="473.93499999999995" y="935.4200000000001" as="targetPoint" />
          </mxGeometry>
        </mxCell>
        <mxCell id="0F26rQ8Cb6kZ93_CO29N-147" value="" style="endArrow=none;html=1;entryX=0.721;entryY=-0.003;entryDx=0;entryDy=0;entryPerimeter=0;" parent="1" edge="1">
          <mxGeometry width="50" height="50" relative="1" as="geometry">
            <mxPoint x="387.0699999999997" y="849.84" as="sourcePoint" />
            <mxPoint x="387.0050000000001" y="925.42" as="targetPoint" />
          </mxGeometry>
        </mxCell>
        <mxCell id="0F26rQ8Cb6kZ93_CO29N-148" value="" style="ellipse;whiteSpace=wrap;html=1;aspect=fixed;strokeWidth=1;fillColor=#000000;" parent="1" vertex="1">
          <mxGeometry x="464" y="837.8399999999999" width="20" height="20" as="geometry" />
        </mxCell>
        <mxCell id="0F26rQ8Cb6kZ93_CO29N-149" value="" style="ellipse;whiteSpace=wrap;html=1;aspect=fixed;strokeWidth=1;" parent="1" vertex="1">
          <mxGeometry x="376" y="831.42" width="20" height="20" as="geometry" />
        </mxCell>
        <mxCell id="0F26rQ8Cb6kZ93_CO29N-150" value="Data di produzione" style="text;html=1;align=center;verticalAlign=middle;resizable=0;points=[];autosize=1;strokeColor=none;" parent="1" vertex="1">
          <mxGeometry x="337" y="813.42" width="110" height="18" as="geometry" />
        </mxCell>
        <mxCell id="0F26rQ8Cb6kZ93_CO29N-151" value="Numero" style="text;html=1;align=center;verticalAlign=middle;resizable=0;points=[];autosize=1;strokeColor=none;" parent="1" vertex="1">
          <mxGeometry x="488" y="820.8399999999999" width="60" height="20" as="geometry" />
        </mxCell>
        <mxCell id="0F26rQ8Cb6kZ93_CO29N-154" value="" style="endArrow=none;html=1;" parent="1" edge="1">
          <mxGeometry width="50" height="50" relative="1" as="geometry">
            <mxPoint x="292" y="934.8299999999998" as="sourcePoint" />
            <mxPoint x="377" y="934.8299999999998" as="targetPoint" />
          </mxGeometry>
        </mxCell>
        <mxCell id="0F26rQ8Cb6kZ93_CO29N-155" value="" style="ellipse;whiteSpace=wrap;html=1;aspect=fixed;strokeWidth=1;fillColor=#FFFFFF;" parent="1" vertex="1">
          <mxGeometry x="272" y="925.42" width="20" height="20" as="geometry" />
        </mxCell>
        <mxCell id="0F26rQ8Cb6kZ93_CO29N-156" value="Data di scadenza" style="text;html=1;align=center;verticalAlign=middle;resizable=0;points=[];autosize=1;strokeColor=none;" parent="1" vertex="1">
          <mxGeometry x="208" y="901.42" width="110" height="20" as="geometry" />
        </mxCell>
        <mxCell id="0F26rQ8Cb6kZ93_CO29N-159" value="(1,n)" style="text;html=1;align=center;verticalAlign=middle;resizable=0;points=[];autosize=1;strokeColor=none;" parent="1" vertex="1">
          <mxGeometry x="620" y="965.5799999999999" width="40" height="20" as="geometry" />
        </mxCell>
        <mxCell id="0F26rQ8Cb6kZ93_CO29N-160" value="(0,n)" style="text;html=1;align=center;verticalAlign=middle;resizable=0;points=[];autosize=1;strokeColor=none;" parent="1" vertex="1">
          <mxGeometry x="476" y="998.42" width="40" height="20" as="geometry" />
        </mxCell>
        <mxCell id="0F26rQ8Cb6kZ93_CO29N-168" value="&lt;font style=&quot;font-size: 18px&quot;&gt;Appartiene&lt;/font&gt;" style="rhombus;whiteSpace=wrap;html=1;strokeWidth=1;fillColor=#FFFFFF;" parent="1" vertex="1">
          <mxGeometry x="687" y="895.42" width="130" height="120" as="geometry" />
        </mxCell>
        <mxCell id="0F26rQ8Cb6kZ93_CO29N-169" value="" style="rounded=0;whiteSpace=wrap;html=1;" parent="1" vertex="1">
          <mxGeometry x="377" y="925.42" width="120" height="60" as="geometry" />
        </mxCell>
        <mxCell id="0F26rQ8Cb6kZ93_CO29N-170" value="LOTTO" style="text;html=1;resizable=0;autosize=1;align=center;verticalAlign=middle;points=[];fillColor=none;strokeColor=none;rounded=0;fontSize=16;" parent="1" vertex="1">
          <mxGeometry x="402" y="945.42" width="70" height="20" as="geometry" />
        </mxCell>
        <mxCell id="0F26rQ8Cb6kZ93_CO29N-195" value="&lt;font style=&quot;font-size: 18px&quot;&gt;Registrazione&lt;/font&gt;" style="rhombus;whiteSpace=wrap;html=1;strokeWidth=1;fillColor=#FFFFFF;" parent="1" vertex="1">
          <mxGeometry x="160" y="304.04" width="130" height="120" as="geometry" />
        </mxCell>
        <mxCell id="0F26rQ8Cb6kZ93_CO29N-196" value="" style="endArrow=none;html=1;entryX=0;entryY=0.5;entryDx=0;entryDy=0;" parent="1" target="0F26rQ8Cb6kZ93_CO29N-195" edge="1">
          <mxGeometry width="50" height="50" relative="1" as="geometry">
            <mxPoint x="-10" y="366" as="sourcePoint" />
            <mxPoint x="190" y="366" as="targetPoint" />
          </mxGeometry>
        </mxCell>
        <mxCell id="4PJkP2hZGQYC7vFWOn__-1" value="(1,n)" style="text;html=1;align=center;verticalAlign=middle;resizable=0;points=[];autosize=1;strokeColor=none;" parent="1" vertex="1">
          <mxGeometry x="1194" y="312" width="35" height="18" as="geometry" />
        </mxCell>
        <mxCell id="4PJkP2hZGQYC7vFWOn__-3" value="" style="endArrow=none;html=1;" parent="1" edge="1">
          <mxGeometry width="50" height="50" relative="1" as="geometry">
            <mxPoint x="950" y="210" as="sourcePoint" />
            <mxPoint x="910" y="170" as="targetPoint" />
            <Array as="points" />
          </mxGeometry>
        </mxCell>
        <mxCell id="4PJkP2hZGQYC7vFWOn__-4" value="" style="ellipse;whiteSpace=wrap;html=1;aspect=fixed;strokeWidth=1;" parent="1" vertex="1">
          <mxGeometry x="945" y="200" width="20" height="20" as="geometry" />
        </mxCell>
        <mxCell id="4PJkP2hZGQYC7vFWOn__-5" value="Vaccino" style="text;html=1;align=center;verticalAlign=middle;resizable=0;points=[];autosize=1;strokeColor=none;" parent="1" vertex="1">
          <mxGeometry x="969" y="220" width="60" height="20" as="geometry" />
        </mxCell>
        <mxCell id="4PJkP2hZGQYC7vFWOn__-6" value="&lt;font style=&quot;font-size: 19px&quot;&gt;Emana&lt;/font&gt;" style="rhombus;whiteSpace=wrap;html=1;strokeWidth=1;fillColor=#FFFFFF;" parent="1" vertex="1">
          <mxGeometry x="1660" y="560" width="160" height="160" as="geometry" />
        </mxCell>
        <mxCell id="4PJkP2hZGQYC7vFWOn__-7" value="" style="endArrow=none;html=1;entryX=0.11;entryY=1.002;entryDx=0;entryDy=0;entryPerimeter=0;" parent="1" source="4PJkP2hZGQYC7vFWOn__-9" target="4PJkP2hZGQYC7vFWOn__-19" edge="1">
          <mxGeometry width="50" height="50" relative="1" as="geometry">
            <mxPoint x="1610.06" y="1116.84" as="sourcePoint" />
            <mxPoint x="1690" y="1094.5800000000004" as="targetPoint" />
          </mxGeometry>
        </mxCell>
        <mxCell id="4PJkP2hZGQYC7vFWOn__-8" value="" style="endArrow=none;html=1;entryX=0.5;entryY=1;entryDx=0;entryDy=0;" parent="1" target="4PJkP2hZGQYC7vFWOn__-19" edge="1">
          <mxGeometry width="50" height="50" relative="1" as="geometry">
            <mxPoint x="1745" y="1134.58" as="sourcePoint" />
            <mxPoint x="1804.9950000000003" y="640.0000000000001" as="targetPoint" />
          </mxGeometry>
        </mxCell>
        <mxCell id="4PJkP2hZGQYC7vFWOn__-9" value="" style="ellipse;whiteSpace=wrap;html=1;aspect=fixed;strokeWidth=1;" parent="1" vertex="1">
          <mxGeometry x="1620" y="1114.58" width="20" height="20" as="geometry" />
        </mxCell>
        <mxCell id="4PJkP2hZGQYC7vFWOn__-10" value="" style="ellipse;whiteSpace=wrap;html=1;aspect=fixed;strokeWidth=1;" parent="1" vertex="1">
          <mxGeometry x="1735" y="1134.58" width="20" height="20" as="geometry" />
        </mxCell>
        <mxCell id="4PJkP2hZGQYC7vFWOn__-11" value="" style="endArrow=none;html=1;exitX=1;exitY=1;exitDx=0;exitDy=0;entryX=0;entryY=1;entryDx=0;entryDy=0;" parent="1" source="4PJkP2hZGQYC7vFWOn__-19" target="4PJkP2hZGQYC7vFWOn__-12" edge="1">
          <mxGeometry width="50" height="50" relative="1" as="geometry">
            <mxPoint x="1804.48" y="660" as="sourcePoint" />
            <mxPoint x="1935" y="994.58" as="targetPoint" />
          </mxGeometry>
        </mxCell>
        <mxCell id="4PJkP2hZGQYC7vFWOn__-12" value="" style="ellipse;whiteSpace=wrap;html=1;aspect=fixed;strokeWidth=1;" parent="1" vertex="1">
          <mxGeometry x="1855" y="1114.58" width="20" height="20" as="geometry" />
        </mxCell>
        <mxCell id="4PJkP2hZGQYC7vFWOn__-13" value="Data" style="text;html=1;align=center;verticalAlign=middle;resizable=0;points=[];autosize=1;strokeColor=none;" parent="1" vertex="1">
          <mxGeometry x="1600" y="1144.58" width="40" height="20" as="geometry" />
        </mxCell>
        <mxCell id="4PJkP2hZGQYC7vFWOn__-14" value="Centro vaccinale" style="text;html=1;align=center;verticalAlign=middle;resizable=0;points=[];autosize=1;strokeColor=none;" parent="1" vertex="1">
          <mxGeometry x="1695" y="1164.58" width="100" height="20" as="geometry" />
        </mxCell>
        <mxCell id="4PJkP2hZGQYC7vFWOn__-15" value="Allergia" style="text;html=1;align=center;verticalAlign=middle;resizable=0;points=[];autosize=1;strokeColor=none;" parent="1" vertex="1">
          <mxGeometry x="1875" y="1134.58" width="60" height="20" as="geometry" />
        </mxCell>
        <mxCell id="4PJkP2hZGQYC7vFWOn__-19" value="&lt;font style=&quot;font-size: 18px&quot;&gt;REPORT&lt;/font&gt;" style="rounded=0;whiteSpace=wrap;html=1;" parent="1" vertex="1">
          <mxGeometry x="1675" y="985.58" width="140" height="79" as="geometry" />
        </mxCell>
        <mxCell id="4PJkP2hZGQYC7vFWOn__-20" value="" style="endArrow=none;html=1;entryX=0.5;entryY=1;entryDx=0;entryDy=0;exitX=0.5;exitY=0;exitDx=0;exitDy=0;" parent="1" source="4PJkP2hZGQYC7vFWOn__-19" target="4PJkP2hZGQYC7vFWOn__-6" edge="1">
          <mxGeometry width="50" height="50" relative="1" as="geometry">
            <mxPoint x="1740" y="980" as="sourcePoint" />
            <mxPoint x="1555" y="814.58" as="targetPoint" />
          </mxGeometry>
        </mxCell>
        <mxCell id="4PJkP2hZGQYC7vFWOn__-22" value="" style="endArrow=none;html=1;exitX=1;exitY=0.5;exitDx=0;exitDy=0;" parent="1" source="4PJkP2hZGQYC7vFWOn__-19" edge="1">
          <mxGeometry width="50" height="50" relative="1" as="geometry">
            <mxPoint x="1825" y="1074.58" as="sourcePoint" />
            <mxPoint x="1895" y="1025.58" as="targetPoint" />
          </mxGeometry>
        </mxCell>
        <mxCell id="4PJkP2hZGQYC7vFWOn__-23" value="" style="ellipse;whiteSpace=wrap;html=1;aspect=fixed;strokeWidth=1;" parent="1" vertex="1">
          <mxGeometry x="1895" y="1015.58" width="20" height="20" as="geometry" />
        </mxCell>
        <mxCell id="4PJkP2hZGQYC7vFWOn__-26" value="" style="endArrow=none;html=1;exitX=1;exitY=0.5;exitDx=0;exitDy=0;" parent="1" edge="1">
          <mxGeometry width="50" height="50" relative="1" as="geometry">
            <mxPoint x="1595" y="1024.49" as="sourcePoint" />
            <mxPoint x="1675" y="1024.99" as="targetPoint" />
          </mxGeometry>
        </mxCell>
        <mxCell id="4PJkP2hZGQYC7vFWOn__-27" value="" style="ellipse;whiteSpace=wrap;html=1;aspect=fixed;strokeWidth=1;" parent="1" vertex="1">
          <mxGeometry x="1575" y="1010.58" width="20" height="20" as="geometry" />
        </mxCell>
        <mxCell id="4PJkP2hZGQYC7vFWOn__-28" value="Numero lotto" style="text;html=1;align=center;verticalAlign=middle;resizable=0;points=[];autosize=1;strokeColor=none;" parent="1" vertex="1">
          <mxGeometry x="1535" y="1034.58" width="80" height="20" as="geometry" />
        </mxCell>
        <mxCell id="4PJkP2hZGQYC7vFWOn__-29" value="Vaccino" style="text;html=1;align=center;verticalAlign=middle;resizable=0;points=[];autosize=1;strokeColor=none;" parent="1" vertex="1">
          <mxGeometry x="1915" y="1035.58" width="60" height="20" as="geometry" />
        </mxCell>
        <mxCell id="4PJkP2hZGQYC7vFWOn__-30" value="(1,1)" style="text;html=1;align=center;verticalAlign=middle;resizable=0;points=[];autosize=1;strokeColor=none;" parent="1" vertex="1">
          <mxGeometry x="1750" y="955.58" width="40" height="20" as="geometry" />
        </mxCell>
        <mxCell id="4PJkP2hZGQYC7vFWOn__-34" value="" style="ellipse;whiteSpace=wrap;html=1;aspect=fixed;strokeWidth=1;fillColor=#000000;" parent="1" vertex="1">
          <mxGeometry x="1845" y="874.58" width="20" height="20" as="geometry" />
        </mxCell>
        <mxCell id="4PJkP2hZGQYC7vFWOn__-35" value="" style="endArrow=none;html=1;" parent="1" target="4PJkP2hZGQYC7vFWOn__-34" edge="1">
          <mxGeometry width="50" height="50" relative="1" as="geometry">
            <mxPoint x="1875" y="1094.58" as="sourcePoint" />
            <mxPoint x="1625" y="964.58" as="targetPoint" />
            <Array as="points">
              <mxPoint x="1625" y="1094.58" />
              <mxPoint x="1625" y="884.58" />
            </Array>
          </mxGeometry>
        </mxCell>
        <mxCell id="e-IhfpROFF-9cVEiDw-P-52" value="&lt;font style=&quot;font-size: 17px&quot;&gt;PRE-ADESIONE&lt;/font&gt;" style="rounded=0;whiteSpace=wrap;html=1;" parent="1" vertex="1">
          <mxGeometry x="-130.5" y="337.03999999999996" width="120" height="60" as="geometry" />
        </mxCell>
        <mxCell id="e-IhfpROFF-9cVEiDw-P-53" value="" style="endArrow=none;html=1;exitX=0.669;exitY=0.192;exitDx=0;exitDy=0;exitPerimeter=0;" parent="1" edge="1">
          <mxGeometry width="50" height="50" relative="1" as="geometry">
            <mxPoint x="-30.5300000000002" y="340.03999999999996" as="sourcePoint" />
            <mxPoint x="-20.5" y="240.00000000000006" as="targetPoint" />
          </mxGeometry>
        </mxCell>
        <mxCell id="e-IhfpROFF-9cVEiDw-P-54" value="" style="ellipse;whiteSpace=wrap;html=1;aspect=fixed;strokeWidth=1;" parent="1" vertex="1">
          <mxGeometry x="-30.5" y="230.00000000000006" width="20" height="20" as="geometry" />
        </mxCell>
        <mxCell id="e-IhfpROFF-9cVEiDw-P-55" value="Data " style="text;html=1;align=center;verticalAlign=middle;resizable=0;points=[];autosize=1;strokeColor=none;" parent="1" vertex="1">
          <mxGeometry x="-40.5" y="210.00000000000006" width="40" height="20" as="geometry" />
        </mxCell>
        <mxCell id="e-IhfpROFF-9cVEiDw-P-56" value="" style="endArrow=none;html=1;exitX=0;exitY=0;exitDx=0;exitDy=0;" parent="1" edge="1">
          <mxGeometry width="50" height="50" relative="1" as="geometry">
            <mxPoint x="-130.5" y="337.03999999999996" as="sourcePoint" />
            <mxPoint x="-158" y="240.00000000000006" as="targetPoint" />
          </mxGeometry>
        </mxCell>
        <mxCell id="e-IhfpROFF-9cVEiDw-P-57" value="" style="ellipse;whiteSpace=wrap;html=1;aspect=fixed;strokeWidth=1;" parent="1" vertex="1">
          <mxGeometry x="-168" y="230.00000000000006" width="20" height="20" as="geometry" />
        </mxCell>
        <mxCell id="e-IhfpROFF-9cVEiDw-P-58" value="Ora" style="text;html=1;align=center;verticalAlign=middle;resizable=0;points=[];autosize=1;strokeColor=none;" parent="1" vertex="1">
          <mxGeometry x="-178" y="210.00000000000006" width="40" height="20" as="geometry" />
        </mxCell>
        <mxCell id="e-IhfpROFF-9cVEiDw-P-60" value="" style="ellipse;whiteSpace=wrap;html=1;aspect=fixed;strokeWidth=1;fillColor=#000000;" parent="1" vertex="1">
          <mxGeometry x="-247.5" y="309.99999999999994" width="20" height="20" as="geometry" />
        </mxCell>
        <mxCell id="e-IhfpROFF-9cVEiDw-P-61" value="(1,1)" style="text;html=1;align=center;verticalAlign=middle;resizable=0;points=[];autosize=1;strokeColor=none;" parent="1" vertex="1">
          <mxGeometry x="-10.5" y="340.03999999999996" width="40" height="20" as="geometry" />
        </mxCell>
        <mxCell id="e-IhfpROFF-9cVEiDw-P-64" value="" style="endArrow=none;html=1;entryX=0;entryY=1;entryDx=0;entryDy=0;" parent="1" target="e-IhfpROFF-9cVEiDw-P-52" edge="1">
          <mxGeometry width="50" height="50" relative="1" as="geometry">
            <mxPoint x="-167.5" y="469.03999999999996" as="sourcePoint" />
            <mxPoint x="-148" y="250.00000000000006" as="targetPoint" />
          </mxGeometry>
        </mxCell>
        <mxCell id="e-IhfpROFF-9cVEiDw-P-65" value="" style="endArrow=none;html=1;entryX=1;entryY=1;entryDx=0;entryDy=0;" parent="1" target="e-IhfpROFF-9cVEiDw-P-52" edge="1">
          <mxGeometry width="50" height="50" relative="1" as="geometry">
            <mxPoint x="32.5" y="479.03999999999996" as="sourcePoint" />
            <mxPoint x="22.5" y="549.04" as="targetPoint" />
          </mxGeometry>
        </mxCell>
        <mxCell id="e-IhfpROFF-9cVEiDw-P-66" value="" style="endArrow=none;html=1;entryX=0.5;entryY=1;entryDx=0;entryDy=0;" parent="1" target="e-IhfpROFF-9cVEiDw-P-52" edge="1">
          <mxGeometry width="50" height="50" relative="1" as="geometry">
            <mxPoint x="-67.5" y="519.0400000000004" as="sourcePoint" />
            <mxPoint x="22.5" y="549.04" as="targetPoint" />
          </mxGeometry>
        </mxCell>
        <mxCell id="e-IhfpROFF-9cVEiDw-P-67" value="" style="ellipse;whiteSpace=wrap;html=1;aspect=fixed;strokeWidth=1;" parent="1" vertex="1">
          <mxGeometry x="22.5" y="469.0799999999999" width="20" height="20" as="geometry" />
        </mxCell>
        <mxCell id="e-IhfpROFF-9cVEiDw-P-68" value="" style="ellipse;whiteSpace=wrap;html=1;aspect=fixed;strokeWidth=1;" parent="1" vertex="1">
          <mxGeometry x="-75.5" y="519.0799999999999" width="20" height="20" as="geometry" />
        </mxCell>
        <mxCell id="e-IhfpROFF-9cVEiDw-P-69" value="" style="ellipse;whiteSpace=wrap;html=1;aspect=fixed;strokeWidth=1;" parent="1" vertex="1">
          <mxGeometry x="-182.5" y="469.0799999999999" width="20" height="20" as="geometry" />
        </mxCell>
        <mxCell id="e-IhfpROFF-9cVEiDw-P-70" value="Telefono" style="text;html=1;align=center;verticalAlign=middle;resizable=0;points=[];autosize=1;strokeColor=none;" parent="1" vertex="1">
          <mxGeometry x="-227.5" y="489.03999999999996" width="60" height="20" as="geometry" />
        </mxCell>
        <mxCell id="e-IhfpROFF-9cVEiDw-P-71" value="E-mail" style="text;html=1;align=center;verticalAlign=middle;resizable=0;points=[];autosize=1;strokeColor=none;" parent="1" vertex="1">
          <mxGeometry x="37.5" y="489.03999999999996" width="50" height="20" as="geometry" />
        </mxCell>
        <mxCell id="e-IhfpROFF-9cVEiDw-P-72" value="(0,1)" style="text;html=1;align=center;verticalAlign=middle;resizable=0;points=[];autosize=1;strokeColor=none;" parent="1" vertex="1">
          <mxGeometry x="12.5" y="429.03999999999996" width="40" height="20" as="geometry" />
        </mxCell>
        <mxCell id="e-IhfpROFF-9cVEiDw-P-73" value="(0,1)" style="text;html=1;align=center;verticalAlign=middle;resizable=0;points=[];autosize=1;strokeColor=none;" parent="1" vertex="1">
          <mxGeometry x="-192.5" y="429.03999999999996" width="40" height="20" as="geometry" />
        </mxCell>
        <mxCell id="e-IhfpROFF-9cVEiDw-P-74" value="ModalitÃ " style="text;html=1;align=center;verticalAlign=middle;resizable=0;points=[];autosize=1;strokeColor=none;" parent="1" vertex="1">
          <mxGeometry x="-97.5" y="549.04" width="60" height="20" as="geometry" />
        </mxCell>
        <mxCell id="e-IhfpROFF-9cVEiDw-P-117" value="" style="rounded=0;whiteSpace=wrap;html=1;" parent="1" vertex="1">
          <mxGeometry x="470" y="334.04" width="120" height="60" as="geometry" />
        </mxCell>
        <mxCell id="e-IhfpROFF-9cVEiDw-P-118" value="VACCINANDO" style="text;html=1;resizable=0;autosize=1;align=center;verticalAlign=middle;points=[];fillColor=none;strokeColor=none;rounded=0;fontSize=16;" parent="1" vertex="1">
          <mxGeometry x="470" y="354.04" width="120" height="20" as="geometry" />
        </mxCell>
        <mxCell id="e-IhfpROFF-9cVEiDw-P-119" value="" style="ellipse;whiteSpace=wrap;html=1;aspect=fixed;strokeWidth=1;fillColor=#000000;" parent="1" vertex="1">
          <mxGeometry x="398" y="250.00000000000009" width="20" height="20" as="geometry" />
        </mxCell>
        <mxCell id="e-IhfpROFF-9cVEiDw-P-120" value="" style="endArrow=none;html=1;entryX=1;entryY=1;entryDx=0;entryDy=0;" parent="1" target="e-IhfpROFF-9cVEiDw-P-119" edge="1">
          <mxGeometry width="50" height="50" relative="1" as="geometry">
            <mxPoint x="472" y="334.00000000000006" as="sourcePoint" />
            <mxPoint x="479.9999999999998" y="274.0399999999998" as="targetPoint" />
          </mxGeometry>
        </mxCell>
        <mxCell id="e-IhfpROFF-9cVEiDw-P-121" value="&lt;div&gt;CF&lt;/div&gt;" style="text;html=1;align=center;verticalAlign=middle;resizable=0;points=[];autosize=1;strokeColor=none;" parent="1" vertex="1">
          <mxGeometry x="368" y="230" width="30" height="20" as="geometry" />
        </mxCell>
        <mxCell id="e-IhfpROFF-9cVEiDw-P-122" value="" style="ellipse;whiteSpace=wrap;html=1;aspect=fixed;strokeWidth=1;" parent="1" vertex="1">
          <mxGeometry x="520" y="254.04000000000005" width="20" height="20" as="geometry" />
        </mxCell>
        <mxCell id="e-IhfpROFF-9cVEiDw-P-123" value="" style="endArrow=none;html=1;entryX=0.5;entryY=1;entryDx=0;entryDy=0;" parent="1" source="e-IhfpROFF-9cVEiDw-P-117" target="e-IhfpROFF-9cVEiDw-P-122" edge="1">
          <mxGeometry width="50" height="50" relative="1" as="geometry">
            <mxPoint x="880" y="424.04" as="sourcePoint" />
            <mxPoint x="930" y="374.04" as="targetPoint" />
          </mxGeometry>
        </mxCell>
        <mxCell id="e-IhfpROFF-9cVEiDw-P-124" value="Nome" style="text;html=1;align=center;verticalAlign=middle;resizable=0;points=[];autosize=1;strokeColor=none;" parent="1" vertex="1">
          <mxGeometry x="505" y="234.04000000000002" width="50" height="20" as="geometry" />
        </mxCell>
        <mxCell id="e-IhfpROFF-9cVEiDw-P-125" value="" style="ellipse;whiteSpace=wrap;html=1;aspect=fixed;strokeWidth=1;" parent="1" vertex="1">
          <mxGeometry x="570" y="254.04000000000005" width="20" height="20" as="geometry" />
        </mxCell>
        <mxCell id="e-IhfpROFF-9cVEiDw-P-126" value="" style="ellipse;whiteSpace=wrap;html=1;aspect=fixed;strokeWidth=1;" parent="1" vertex="1">
          <mxGeometry x="630" y="254.04000000000005" width="20" height="20" as="geometry" />
        </mxCell>
        <mxCell id="e-IhfpROFF-9cVEiDw-P-127" value="" style="endArrow=none;html=1;entryX=0;entryY=1;entryDx=0;entryDy=0;exitX=0.825;exitY=0.033;exitDx=0;exitDy=0;exitPerimeter=0;" parent="1" source="e-IhfpROFF-9cVEiDw-P-117" target="e-IhfpROFF-9cVEiDw-P-125" edge="1">
          <mxGeometry width="50" height="50" relative="1" as="geometry">
            <mxPoint x="540" y="344.04" as="sourcePoint" />
            <mxPoint x="540" y="284.04" as="targetPoint" />
            <Array as="points" />
          </mxGeometry>
        </mxCell>
        <mxCell id="e-IhfpROFF-9cVEiDw-P-128" value="" style="endArrow=none;html=1;exitX=1.021;exitY=-0.135;exitDx=0;exitDy=0;exitPerimeter=0;" parent="1" edge="1">
          <mxGeometry width="50" height="50" relative="1" as="geometry">
            <mxPoint x="589.9999999999998" y="334.0399999999998" as="sourcePoint" />
            <mxPoint x="627.48" y="266.74000000000007" as="targetPoint" />
          </mxGeometry>
        </mxCell>
        <mxCell id="e-IhfpROFF-9cVEiDw-P-129" value="Cognome" style="text;html=1;align=center;verticalAlign=middle;resizable=0;points=[];autosize=1;strokeColor=none;" parent="1" vertex="1">
          <mxGeometry x="565" y="234.04000000000002" width="70" height="20" as="geometry" />
        </mxCell>
        <mxCell id="e-IhfpROFF-9cVEiDw-P-130" value="EtÃ " style="text;html=1;align=center;verticalAlign=middle;resizable=0;points=[];autosize=1;strokeColor=none;" parent="1" vertex="1">
          <mxGeometry x="650" y="234.04000000000002" width="30" height="20" as="geometry" />
        </mxCell>
        <mxCell id="e-IhfpROFF-9cVEiDw-P-131" value="" style="endArrow=none;html=1;exitX=1;exitY=1;exitDx=0;exitDy=0;entryX=0.5;entryY=0;entryDx=0;entryDy=0;" parent="1" source="e-IhfpROFF-9cVEiDw-P-117" target="q9LDl1yz-0mYo0iGjOJ9-15" edge="1">
          <mxGeometry width="50" height="50" relative="1" as="geometry">
            <mxPoint x="602.52" y="361.3400000000001" as="sourcePoint" />
            <mxPoint x="590" y="540" as="targetPoint" />
            <Array as="points">
              <mxPoint x="590" y="567" />
            </Array>
          </mxGeometry>
        </mxCell>
        <mxCell id="e-IhfpROFF-9cVEiDw-P-134" value="(0,n)" style="text;html=1;align=center;verticalAlign=middle;resizable=0;points=[];autosize=1;strokeColor=none;" parent="1" vertex="1">
          <mxGeometry x="580" y="569.04" width="40" height="20" as="geometry" />
        </mxCell>
        <mxCell id="e-IhfpROFF-9cVEiDw-P-135" value="" style="endArrow=none;html=1;exitX=0.678;exitY=1.033;exitDx=0;exitDy=0;exitPerimeter=0;" parent="1" source="e-IhfpROFF-9cVEiDw-P-117" edge="1">
          <mxGeometry width="50" height="50" relative="1" as="geometry">
            <mxPoint x="600" y="404.04" as="sourcePoint" />
            <mxPoint x="551" y="444.0399999999998" as="targetPoint" />
          </mxGeometry>
        </mxCell>
        <mxCell id="e-IhfpROFF-9cVEiDw-P-136" value="" style="endArrow=none;html=1;exitX=0.158;exitY=1.053;exitDx=0;exitDy=0;exitPerimeter=0;" parent="1" source="e-IhfpROFF-9cVEiDw-P-117" edge="1">
          <mxGeometry width="50" height="50" relative="1" as="geometry">
            <mxPoint x="610" y="414.04" as="sourcePoint" />
            <mxPoint x="489.0000000000002" y="444.0399999999998" as="targetPoint" />
          </mxGeometry>
        </mxCell>
        <mxCell id="e-IhfpROFF-9cVEiDw-P-137" value="" style="ellipse;whiteSpace=wrap;html=1;aspect=fixed;strokeWidth=1;" parent="1" vertex="1">
          <mxGeometry x="540" y="444.04" width="20" height="20" as="geometry" />
        </mxCell>
        <mxCell id="e-IhfpROFF-9cVEiDw-P-138" value="" style="ellipse;whiteSpace=wrap;html=1;aspect=fixed;strokeWidth=1;" parent="1" vertex="1">
          <mxGeometry x="475" y="444.04" width="20" height="20" as="geometry" />
        </mxCell>
        <mxCell id="e-IhfpROFF-9cVEiDw-P-139" value="Indirizzo" style="text;html=1;align=center;verticalAlign=middle;resizable=0;points=[];autosize=1;strokeColor=none;" parent="1" vertex="1">
          <mxGeometry x="520" y="464.04" width="60" height="20" as="geometry" />
        </mxCell>
        <mxCell id="e-IhfpROFF-9cVEiDw-P-140" value="CittÃ " style="text;html=1;align=center;verticalAlign=middle;resizable=0;points=[];autosize=1;strokeColor=none;" parent="1" vertex="1">
          <mxGeometry x="450" y="464.04" width="40" height="20" as="geometry" />
        </mxCell>
        <mxCell id="e-IhfpROFF-9cVEiDw-P-142" value="" style="endArrow=none;html=1;entryX=0;entryY=1;entryDx=0;entryDy=0;" parent="1" target="e-IhfpROFF-9cVEiDw-P-117" edge="1">
          <mxGeometry width="50" height="50" relative="1" as="geometry">
            <mxPoint x="433.40999999999985" y="439.0399999999998" as="sourcePoint" />
            <mxPoint x="433.40999999999985" y="379.04" as="targetPoint" />
          </mxGeometry>
        </mxCell>
        <mxCell id="e-IhfpROFF-9cVEiDw-P-143" value="" style="ellipse;whiteSpace=wrap;html=1;aspect=fixed;strokeWidth=1;" parent="1" vertex="1">
          <mxGeometry x="418" y="439.04" width="20" height="20" as="geometry" />
        </mxCell>
        <mxCell id="e-IhfpROFF-9cVEiDw-P-144" value="&lt;div&gt;PositivitÃ  &lt;br&gt;&lt;/div&gt;&lt;div&gt;pregessa&lt;/div&gt;" style="text;html=1;align=center;verticalAlign=middle;resizable=0;points=[];autosize=1;strokeColor=none;" parent="1" vertex="1">
          <mxGeometry x="362" y="449.04" width="60" height="30" as="geometry" />
        </mxCell>
        <mxCell id="e-IhfpROFF-9cVEiDw-P-147" value="" style="endArrow=none;html=1;exitX=0.25;exitY=0;exitDx=0;exitDy=0;" parent="1" source="e-IhfpROFF-9cVEiDw-P-117" edge="1">
          <mxGeometry width="50" height="50" relative="1" as="geometry">
            <mxPoint x="492" y="330.00000000000006" as="sourcePoint" />
            <mxPoint x="462" y="240" as="targetPoint" />
          </mxGeometry>
        </mxCell>
        <mxCell id="e-IhfpROFF-9cVEiDw-P-148" value="" style="ellipse;whiteSpace=wrap;html=1;aspect=fixed;strokeWidth=1;" parent="1" vertex="1">
          <mxGeometry x="450" y="226" width="20" height="20" as="geometry" />
        </mxCell>
        <mxCell id="e-IhfpROFF-9cVEiDw-P-149" value="Categoria" style="text;html=1;align=center;verticalAlign=middle;resizable=0;points=[];autosize=1;strokeColor=none;" parent="1" vertex="1">
          <mxGeometry x="418" y="200" width="70" height="20" as="geometry" />
        </mxCell>
        <mxCell id="e-IhfpROFF-9cVEiDw-P-150" value="" style="endArrow=none;html=1;exitX=1;exitY=0.5;exitDx=0;exitDy=0;" parent="1" source="0F26rQ8Cb6kZ93_CO29N-195" edge="1">
          <mxGeometry width="50" height="50" relative="1" as="geometry">
            <mxPoint x="420" y="470" as="sourcePoint" />
            <mxPoint x="469" y="367" as="targetPoint" />
            <Array as="points" />
          </mxGeometry>
        </mxCell>
        <mxCell id="e-IhfpROFF-9cVEiDw-P-151" value="(1,n)" style="text;html=1;align=center;verticalAlign=middle;resizable=0;points=[];autosize=1;strokeColor=none;" parent="1" vertex="1">
          <mxGeometry x="595" y="357.04" width="40" height="20" as="geometry" />
        </mxCell>
        <mxCell id="e-IhfpROFF-9cVEiDw-P-152" value="(1,1)" style="text;html=1;align=center;verticalAlign=middle;resizable=0;points=[];autosize=1;strokeColor=none;" parent="1" vertex="1">
          <mxGeometry x="422" y="344" width="40" height="20" as="geometry" />
        </mxCell>
        <mxCell id="e-IhfpROFF-9cVEiDw-P-153" value="(1,n)" style="text;html=1;align=center;verticalAlign=middle;resizable=0;points=[];autosize=1;strokeColor=none;" parent="1" vertex="1">
          <mxGeometry x="515" y="140" width="40" height="20" as="geometry" />
        </mxCell>
        <mxCell id="e-IhfpROFF-9cVEiDw-P-182" value="" style="endArrow=none;html=1;" parent="1" edge="1">
          <mxGeometry width="50" height="50" relative="1" as="geometry">
            <mxPoint x="1207" y="947.7099999999999" as="sourcePoint" />
            <mxPoint x="1292.0000000000005" y="947.7099999999999" as="targetPoint" />
          </mxGeometry>
        </mxCell>
        <mxCell id="e-IhfpROFF-9cVEiDw-P-183" value="" style="endArrow=none;html=1;entryX=0.721;entryY=-0.003;entryDx=0;entryDy=0;entryPerimeter=0;" parent="1" edge="1">
          <mxGeometry width="50" height="50" relative="1" as="geometry">
            <mxPoint x="1189" y="849.13" as="sourcePoint" />
            <mxPoint x="1188.935" y="924.7100000000004" as="targetPoint" />
          </mxGeometry>
        </mxCell>
        <mxCell id="e-IhfpROFF-9cVEiDw-P-184" value="" style="endArrow=none;html=1;entryX=0.721;entryY=-0.003;entryDx=0;entryDy=0;entryPerimeter=0;" parent="1" edge="1">
          <mxGeometry width="50" height="50" relative="1" as="geometry">
            <mxPoint x="1101.0699999999997" y="849.5500000000001" as="sourcePoint" />
            <mxPoint x="1101.005" y="925.13" as="targetPoint" />
          </mxGeometry>
        </mxCell>
        <mxCell id="e-IhfpROFF-9cVEiDw-P-185" value="" style="ellipse;whiteSpace=wrap;html=1;aspect=fixed;strokeWidth=1;" parent="1" vertex="1">
          <mxGeometry x="1179" y="827.13" width="20" height="20" as="geometry" />
        </mxCell>
        <mxCell id="e-IhfpROFF-9cVEiDw-P-186" value="" style="ellipse;whiteSpace=wrap;html=1;aspect=fixed;strokeWidth=1;" parent="1" vertex="1">
          <mxGeometry x="1090" y="831.13" width="20" height="20" as="geometry" />
        </mxCell>
        <mxCell id="e-IhfpROFF-9cVEiDw-P-187" value="EtÃ  minima" style="text;html=1;align=center;verticalAlign=middle;resizable=0;points=[];autosize=1;strokeColor=none;" parent="1" vertex="1">
          <mxGeometry x="1065" y="809.13" width="70" height="18" as="geometry" />
        </mxCell>
        <mxCell id="e-IhfpROFF-9cVEiDw-P-188" value="&lt;div&gt;EtÃ  massima&lt;/div&gt;&lt;div&gt;&lt;br&gt;&lt;/div&gt;" style="text;html=1;align=center;verticalAlign=middle;resizable=0;points=[];autosize=1;strokeColor=none;" parent="1" vertex="1">
          <mxGeometry x="1155" y="809.13" width="79" height="32" as="geometry" />
        </mxCell>
        <mxCell id="e-IhfpROFF-9cVEiDw-P-189" value="" style="ellipse;whiteSpace=wrap;html=1;aspect=fixed;strokeWidth=1;" parent="1" vertex="1">
          <mxGeometry x="1289.5" y="936.7099999999999" width="20" height="20" as="geometry" />
        </mxCell>
        <mxCell id="e-IhfpROFF-9cVEiDw-P-190" value="&lt;div&gt;Percentuale &lt;br&gt;&lt;/div&gt;&lt;div&gt;efficacia&lt;/div&gt;" style="text;html=1;align=center;verticalAlign=middle;resizable=0;points=[];autosize=1;strokeColor=none;" parent="1" vertex="1">
          <mxGeometry x="1311.5" y="924.7099999999999" width="74" height="32" as="geometry" />
        </mxCell>
        <mxCell id="e-IhfpROFF-9cVEiDw-P-191" value="" style="endArrow=none;html=1;entryX=1;entryY=0.75;entryDx=0;entryDy=0;" parent="1" target="e-IhfpROFF-9cVEiDw-P-194" edge="1">
          <mxGeometry width="50" height="50" relative="1" as="geometry">
            <mxPoint x="1295" y="1016.7099999999999" as="sourcePoint" />
            <mxPoint x="1387" y="1017.1199999999998" as="targetPoint" />
          </mxGeometry>
        </mxCell>
        <mxCell id="e-IhfpROFF-9cVEiDw-P-192" value="" style="ellipse;whiteSpace=wrap;html=1;aspect=fixed;strokeWidth=1;fillColor=#000000;" parent="1" vertex="1">
          <mxGeometry x="1282" y="1007.7099999999999" width="20" height="20" as="geometry" />
        </mxCell>
        <mxCell id="e-IhfpROFF-9cVEiDw-P-193" value="Nome" style="text;html=1;align=center;verticalAlign=middle;resizable=0;points=[];autosize=1;strokeColor=none;" parent="1" vertex="1">
          <mxGeometry x="1309.5" y="1018.7099999999999" width="42" height="18" as="geometry" />
        </mxCell>
        <mxCell id="e-IhfpROFF-9cVEiDw-P-194" value="" style="rounded=0;whiteSpace=wrap;html=1;" parent="1" vertex="1">
          <mxGeometry x="1087" y="924.7099999999999" width="120" height="60" as="geometry" />
        </mxCell>
        <mxCell id="e-IhfpROFF-9cVEiDw-P-195" value="VACCINO" style="text;html=1;resizable=0;autosize=1;align=center;verticalAlign=middle;points=[];fillColor=none;strokeColor=none;rounded=0;fontSize=16;" parent="1" vertex="1">
          <mxGeometry x="1102" y="944.7099999999999" width="90" height="20" as="geometry" />
        </mxCell>
        <mxCell id="e-IhfpROFF-9cVEiDw-P-196" value="" style="endArrow=none;html=1;entryX=0;entryY=1;entryDx=0;entryDy=0;" parent="1" target="e-IhfpROFF-9cVEiDw-P-194" edge="1">
          <mxGeometry width="50" height="50" relative="1" as="geometry">
            <mxPoint x="1010.5" y="1049.13" as="sourcePoint" />
            <mxPoint x="980.5" y="1049.13" as="targetPoint" />
          </mxGeometry>
        </mxCell>
        <mxCell id="e-IhfpROFF-9cVEiDw-P-197" value="" style="endArrow=none;html=1;entryX=0.5;entryY=1;entryDx=0;entryDy=0;" parent="1" target="e-IhfpROFF-9cVEiDw-P-194" edge="1">
          <mxGeometry width="50" height="50" relative="1" as="geometry">
            <mxPoint x="1147.5" y="1059.13" as="sourcePoint" />
            <mxPoint x="980.5" y="1049.13" as="targetPoint" />
          </mxGeometry>
        </mxCell>
        <mxCell id="e-IhfpROFF-9cVEiDw-P-198" value="" style="ellipse;whiteSpace=wrap;html=1;aspect=fixed;strokeWidth=1;" parent="1" vertex="1">
          <mxGeometry x="1137" y="1051.71" width="20" height="20" as="geometry" />
        </mxCell>
        <mxCell id="e-IhfpROFF-9cVEiDw-P-199" value="" style="ellipse;whiteSpace=wrap;html=1;aspect=fixed;strokeWidth=1;" parent="1" vertex="1">
          <mxGeometry x="1000.5" y="1039.13" width="20" height="20" as="geometry" />
        </mxCell>
        <mxCell id="e-IhfpROFF-9cVEiDw-P-200" value="(0,1)" style="text;html=1;align=center;verticalAlign=middle;resizable=0;points=[];autosize=1;strokeColor=none;" parent="1" vertex="1">
          <mxGeometry x="1152" y="994.13" width="40" height="20" as="geometry" />
        </mxCell>
        <mxCell id="e-IhfpROFF-9cVEiDw-P-201" value="Intervallo dosi" style="text;html=1;align=center;verticalAlign=middle;resizable=0;points=[];autosize=1;strokeColor=none;" parent="1" vertex="1">
          <mxGeometry x="1102" y="1081.71" width="90" height="20" as="geometry" />
        </mxCell>
        <mxCell id="e-IhfpROFF-9cVEiDw-P-202" value="Tipologia" style="text;html=1;align=center;verticalAlign=middle;resizable=0;points=[];autosize=1;strokeColor=none;" parent="1" vertex="1">
          <mxGeometry x="954.5" y="1061.71" width="60" height="20" as="geometry" />
        </mxCell>
        <mxCell id="e-IhfpROFF-9cVEiDw-P-203" value="(1,n)" style="text;html=1;align=center;verticalAlign=middle;resizable=0;points=[];autosize=1;strokeColor=none;" parent="1" vertex="1">
          <mxGeometry x="1142" y="901.42" width="40" height="20" as="geometry" />
        </mxCell>
        <mxCell id="e-IhfpROFF-9cVEiDw-P-234" value="&lt;blockquote style=&quot;font-size: 20px&quot;&gt;MEDICO&lt;/blockquote&gt;" style="whiteSpace=wrap;html=1;strokeWidth=1;fillColor=#FFFFFF;" parent="1" vertex="1">
          <mxGeometry x="1680" y="340.04" width="120" height="60" as="geometry" />
        </mxCell>
        <mxCell id="e-IhfpROFF-9cVEiDw-P-235" value="" style="endArrow=none;html=1;exitX=0.075;exitY=0.014;exitDx=0;exitDy=0;exitPerimeter=0;" parent="1" source="e-IhfpROFF-9cVEiDw-P-234" edge="1">
          <mxGeometry width="50" height="50" relative="1" as="geometry">
            <mxPoint x="1770" y="270" as="sourcePoint" />
            <mxPoint x="1625" y="275.96" as="targetPoint" />
            <Array as="points" />
          </mxGeometry>
        </mxCell>
        <mxCell id="e-IhfpROFF-9cVEiDw-P-236" value="" style="ellipse;whiteSpace=wrap;html=1;aspect=fixed;strokeWidth=1;fillColor=#000000;" parent="1" vertex="1">
          <mxGeometry x="1615" y="265.9599999999999" width="20" height="20" as="geometry" />
        </mxCell>
        <mxCell id="e-IhfpROFF-9cVEiDw-P-237" value="CF" style="text;html=1;align=center;verticalAlign=middle;resizable=0;points=[];autosize=1;strokeColor=none;" parent="1" vertex="1">
          <mxGeometry x="1595" y="235.95999999999998" width="30" height="20" as="geometry" />
        </mxCell>
        <mxCell id="e-IhfpROFF-9cVEiDw-P-238" value="" style="endArrow=none;html=1;exitX=0.429;exitY=-0.022;exitDx=0;exitDy=0;exitPerimeter=0;" parent="1" source="e-IhfpROFF-9cVEiDw-P-234" edge="1">
          <mxGeometry width="50" height="50" relative="1" as="geometry">
            <mxPoint x="1730" y="329.99999999999994" as="sourcePoint" />
            <mxPoint x="1730" y="259.1599999999998" as="targetPoint" />
            <Array as="points" />
          </mxGeometry>
        </mxCell>
        <mxCell id="e-IhfpROFF-9cVEiDw-P-239" value="" style="ellipse;whiteSpace=wrap;html=1;aspect=fixed;strokeWidth=1;" parent="1" vertex="1">
          <mxGeometry x="1720" y="239.99999999999994" width="20" height="20" as="geometry" />
        </mxCell>
        <mxCell id="e-IhfpROFF-9cVEiDw-P-240" value="" style="ellipse;whiteSpace=wrap;html=1;aspect=fixed;strokeWidth=1;" parent="1" vertex="1">
          <mxGeometry x="1770" y="239.99999999999994" width="20" height="20" as="geometry" />
        </mxCell>
        <mxCell id="e-IhfpROFF-9cVEiDw-P-241" value="" style="ellipse;whiteSpace=wrap;html=1;aspect=fixed;strokeWidth=1;" parent="1" vertex="1">
          <mxGeometry x="1840" y="249.99999999999994" width="20" height="20" as="geometry" />
        </mxCell>
        <mxCell id="e-IhfpROFF-9cVEiDw-P-242" value="" style="ellipse;whiteSpace=wrap;html=1;aspect=fixed;strokeWidth=1;" parent="1" vertex="1">
          <mxGeometry x="1880" y="300" width="20" height="20" as="geometry" />
        </mxCell>
        <mxCell id="e-IhfpROFF-9cVEiDw-P-243" value="" style="ellipse;whiteSpace=wrap;html=1;aspect=fixed;strokeWidth=1;" parent="1" vertex="1">
          <mxGeometry x="1850" y="465.96" width="20" height="20" as="geometry" />
        </mxCell>
        <mxCell id="e-IhfpROFF-9cVEiDw-P-244" value="" style="endArrow=none;html=1;" parent="1" edge="1">
          <mxGeometry width="50" height="50" relative="1" as="geometry">
            <mxPoint x="1779" y="340" as="sourcePoint" />
            <mxPoint x="1779.4099999999999" y="259.99999999999994" as="targetPoint" />
            <Array as="points" />
          </mxGeometry>
        </mxCell>
        <mxCell id="e-IhfpROFF-9cVEiDw-P-245" value="" style="endArrow=none;html=1;exitX=1;exitY=0;exitDx=0;exitDy=0;entryX=0;entryY=1;entryDx=0;entryDy=0;" parent="1" source="e-IhfpROFF-9cVEiDw-P-234" target="e-IhfpROFF-9cVEiDw-P-241" edge="1">
          <mxGeometry width="50" height="50" relative="1" as="geometry">
            <mxPoint x="1750" y="350" as="sourcePoint" />
            <mxPoint x="1750" y="279.1600000000001" as="targetPoint" />
            <Array as="points" />
          </mxGeometry>
        </mxCell>
        <mxCell id="e-IhfpROFF-9cVEiDw-P-246" value="" style="endArrow=none;html=1;exitX=1;exitY=0.25;exitDx=0;exitDy=0;entryX=0;entryY=1;entryDx=0;entryDy=0;" parent="1" source="e-IhfpROFF-9cVEiDw-P-234" target="e-IhfpROFF-9cVEiDw-P-242" edge="1">
          <mxGeometry width="50" height="50" relative="1" as="geometry">
            <mxPoint x="1760" y="360" as="sourcePoint" />
            <mxPoint x="1760" y="289.1600000000001" as="targetPoint" />
            <Array as="points" />
          </mxGeometry>
        </mxCell>
        <mxCell id="e-IhfpROFF-9cVEiDw-P-247" value="" style="endArrow=none;html=1;exitX=1;exitY=1;exitDx=0;exitDy=0;" parent="1" source="e-IhfpROFF-9cVEiDw-P-234" edge="1">
          <mxGeometry width="50" height="50" relative="1" as="geometry">
            <mxPoint x="1800" y="395.96" as="sourcePoint" />
            <mxPoint x="1855" y="465.96" as="targetPoint" />
            <Array as="points" />
          </mxGeometry>
        </mxCell>
        <mxCell id="e-IhfpROFF-9cVEiDw-P-248" value="Nome" style="text;html=1;align=center;verticalAlign=middle;resizable=0;points=[];autosize=1;strokeColor=none;" parent="1" vertex="1">
          <mxGeometry x="1705" y="220" width="50" height="20" as="geometry" />
        </mxCell>
        <mxCell id="e-IhfpROFF-9cVEiDw-P-249" value="Cognome" style="text;html=1;align=center;verticalAlign=middle;resizable=0;points=[];autosize=1;strokeColor=none;" parent="1" vertex="1">
          <mxGeometry x="1755" y="220" width="70" height="20" as="geometry" />
        </mxCell>
        <mxCell id="e-IhfpROFF-9cVEiDw-P-250" value="EtÃ " style="text;html=1;align=center;verticalAlign=middle;resizable=0;points=[];autosize=1;strokeColor=none;" parent="1" vertex="1">
          <mxGeometry x="1850" y="229.99999999999997" width="30" height="20" as="geometry" />
        </mxCell>
        <mxCell id="e-IhfpROFF-9cVEiDw-P-251" value="CittÃ " style="text;html=1;align=center;verticalAlign=middle;resizable=0;points=[];autosize=1;strokeColor=none;" parent="1" vertex="1">
          <mxGeometry x="1890" y="280" width="40" height="20" as="geometry" />
        </mxCell>
        <mxCell id="e-IhfpROFF-9cVEiDw-P-252" value="Indirizzo" style="text;html=1;align=center;verticalAlign=middle;resizable=0;points=[];autosize=1;strokeColor=none;" parent="1" vertex="1">
          <mxGeometry x="1870" y="455.96" width="60" height="20" as="geometry" />
        </mxCell>
        <mxCell id="e-IhfpROFF-9cVEiDw-P-253" value="" style="endArrow=none;html=1;entryX=0;entryY=1;entryDx=0;entryDy=0;" parent="1" target="e-IhfpROFF-9cVEiDw-P-234" edge="1">
          <mxGeometry width="50" height="50" relative="1" as="geometry">
            <mxPoint x="1595" y="455.96" as="sourcePoint" />
            <mxPoint x="1495" y="495.96000000000004" as="targetPoint" />
          </mxGeometry>
        </mxCell>
        <mxCell id="e-IhfpROFF-9cVEiDw-P-254" value="" style="ellipse;whiteSpace=wrap;html=1;aspect=fixed;strokeWidth=1;" parent="1" vertex="1">
          <mxGeometry x="1575" y="450.9599999999999" width="20" height="20" as="geometry" />
        </mxCell>
        <mxCell id="e-IhfpROFF-9cVEiDw-P-255" value="Qualifica" style="text;html=1;align=center;verticalAlign=middle;resizable=0;points=[];autosize=1;strokeColor=none;" parent="1" vertex="1">
          <mxGeometry x="1535" y="479.99999999999994" width="60" height="20" as="geometry" />
        </mxCell>
        <mxCell id="e-IhfpROFF-9cVEiDw-P-257" value="" style="endArrow=none;html=1;entryX=0.5;entryY=0;entryDx=0;entryDy=0;exitX=0.5;exitY=1;exitDx=0;exitDy=0;" parent="1" source="e-IhfpROFF-9cVEiDw-P-234" target="4PJkP2hZGQYC7vFWOn__-6" edge="1">
          <mxGeometry width="50" height="50" relative="1" as="geometry">
            <mxPoint x="1560" y="760" as="sourcePoint" />
            <mxPoint x="1610" y="710" as="targetPoint" />
          </mxGeometry>
        </mxCell>
        <mxCell id="e-IhfpROFF-9cVEiDw-P-258" value="(1,n)" style="text;html=1;align=center;verticalAlign=middle;resizable=0;points=[];autosize=1;strokeColor=none;" parent="1" vertex="1">
          <mxGeometry x="1740" y="410" width="40" height="20" as="geometry" />
        </mxCell>
        <mxCell id="e-IhfpROFF-9cVEiDw-P-259" value="(1,1)" style="text;html=1;align=center;verticalAlign=middle;resizable=0;points=[];autosize=1;strokeColor=none;" parent="1" vertex="1">
          <mxGeometry x="1635" y="345" width="40" height="20" as="geometry" />
        </mxCell>
        <mxCell id="q9LDl1yz-0mYo0iGjOJ9-2" value="" style="endArrow=none;html=1;exitX=-0.012;exitY=0.399;exitDx=0;exitDy=0;entryX=1;entryY=0.5;entryDx=0;entryDy=0;exitPerimeter=0;" parent="1" source="e-IhfpROFF-9cVEiDw-P-52" target="e-IhfpROFF-9cVEiDw-P-60" edge="1">
          <mxGeometry width="50" height="50" relative="1" as="geometry">
            <mxPoint x="-120.5" y="347.03999999999996" as="sourcePoint" />
            <mxPoint x="-148" y="250" as="targetPoint" />
          </mxGeometry>
        </mxCell>
        <mxCell id="q9LDl1yz-0mYo0iGjOJ9-3" value="ID" style="text;html=1;align=center;verticalAlign=middle;resizable=0;points=[];autosize=1;strokeColor=none;" parent="1" vertex="1">
          <mxGeometry x="-295" y="290" width="30" height="20" as="geometry" />
        </mxCell>
        <mxCell id="q9LDl1yz-0mYo0iGjOJ9-4" value="" style="endArrow=none;html=1;entryX=0;entryY=0.75;entryDx=0;entryDy=0;exitX=1;exitY=0;exitDx=0;exitDy=0;" parent="1" target="e-IhfpROFF-9cVEiDw-P-117" edge="1" source="q9LDl1yz-0mYo0iGjOJ9-5">
          <mxGeometry width="50" height="50" relative="1" as="geometry">
            <mxPoint x="710" y="410" as="sourcePoint" />
            <mxPoint x="360" y="410" as="targetPoint" />
          </mxGeometry>
        </mxCell>
        <mxCell id="q9LDl1yz-0mYo0iGjOJ9-5" value="" style="ellipse;whiteSpace=wrap;html=1;aspect=fixed;strokeWidth=1;fillColor=#000000;" parent="1" vertex="1">
          <mxGeometry x="340" y="404.0400000000001" width="20" height="20" as="geometry" />
        </mxCell>
        <mxCell id="q9LDl1yz-0mYo0iGjOJ9-6" value="Codice" style="text;html=1;align=center;verticalAlign=middle;resizable=0;points=[];autosize=1;strokeColor=none;" parent="1" vertex="1">
          <mxGeometry x="304" y="430" width="50" height="20" as="geometry" />
        </mxCell>
        <mxCell id="q9LDl1yz-0mYo0iGjOJ9-7" value="" style="endArrow=none;html=1;entryX=1;entryY=0.75;entryDx=0;entryDy=0;" parent="1" target="e-IhfpROFF-9cVEiDw-P-234" edge="1">
          <mxGeometry width="50" height="50" relative="1" as="geometry">
            <mxPoint x="1900" y="385" as="sourcePoint" />
            <mxPoint x="1740" y="410" as="targetPoint" />
          </mxGeometry>
        </mxCell>
        <mxCell id="q9LDl1yz-0mYo0iGjOJ9-8" value="" style="ellipse;whiteSpace=wrap;html=1;aspect=fixed;strokeWidth=1;fillColor=#000000;" parent="1" vertex="1">
          <mxGeometry x="1895" y="374.03999999999996" width="20" height="20" as="geometry" />
        </mxCell>
        <mxCell id="q9LDl1yz-0mYo0iGjOJ9-9" value="Codice" style="text;html=1;align=center;verticalAlign=middle;resizable=0;points=[];autosize=1;strokeColor=none;" parent="1" vertex="1">
          <mxGeometry x="1920" y="370" width="50" height="20" as="geometry" />
        </mxCell>
        <mxCell id="q9LDl1yz-0mYo0iGjOJ9-10" value="" style="endArrow=none;html=1;" parent="1" edge="1">
          <mxGeometry width="50" height="50" relative="1" as="geometry">
            <mxPoint x="100" y="320" as="sourcePoint" />
            <mxPoint x="100" y="400" as="targetPoint" />
            <Array as="points" />
          </mxGeometry>
        </mxCell>
        <mxCell id="q9LDl1yz-0mYo0iGjOJ9-11" value="" style="ellipse;whiteSpace=wrap;html=1;aspect=fixed;strokeWidth=1;fillColor=#000000;" parent="1" vertex="1">
          <mxGeometry x="90" y="390" width="24.04" height="24.04" as="geometry" />
        </mxCell>
        <mxCell id="q9LDl1yz-0mYo0iGjOJ9-12" value="" style="endArrow=none;html=1;exitX=1;exitY=0.841;exitDx=0;exitDy=0;exitPerimeter=0;" parent="1" source="4PJkP2hZGQYC7vFWOn__-19" edge="1">
          <mxGeometry width="50" height="50" relative="1" as="geometry">
            <mxPoint x="1840" y="1020" as="sourcePoint" />
            <mxPoint x="1940" y="1090" as="targetPoint" />
          </mxGeometry>
        </mxCell>
        <mxCell id="q9LDl1yz-0mYo0iGjOJ9-13" value="" style="ellipse;whiteSpace=wrap;html=1;aspect=fixed;strokeWidth=1;fillColor=#000000;" parent="1" vertex="1">
          <mxGeometry x="1935" y="1081.71" width="20" height="20" as="geometry" />
        </mxCell>
        <mxCell id="q9LDl1yz-0mYo0iGjOJ9-14" value="&lt;div&gt;ID&lt;/div&gt;" style="text;html=1;align=center;verticalAlign=middle;resizable=0;points=[];autosize=1;strokeColor=none;" parent="1" vertex="1">
          <mxGeometry x="1970" y="1086.42" width="30" height="20" as="geometry" />
        </mxCell>
        <mxCell id="q9LDl1yz-0mYo0iGjOJ9-15" value="&lt;font style=&quot;font-size: 18px&quot;&gt;Ha&lt;/font&gt;" style="rhombus;whiteSpace=wrap;html=1;fillColor=#FFFFFF;" parent="1" vertex="1">
          <mxGeometry x="408" y="566.8100000000001" width="132" height="130.92" as="geometry" />
        </mxCell>
        <mxCell id="q9LDl1yz-0mYo0iGjOJ9-16" value="" style="endArrow=none;html=1;entryX=0;entryY=0.5;entryDx=0;entryDy=0;" parent="1" target="q9LDl1yz-0mYo0iGjOJ9-15" edge="1">
          <mxGeometry width="50" height="50" relative="1" as="geometry">
            <mxPoint x="271" y="632" as="sourcePoint" />
            <mxPoint x="361" y="705.46" as="targetPoint" />
          </mxGeometry>
        </mxCell>
        <mxCell id="q9LDl1yz-0mYo0iGjOJ9-17" value="&lt;font style=&quot;font-size: 18px&quot;&gt;ALLERGIA&lt;/font&gt;" style="rounded=0;whiteSpace=wrap;html=1;" parent="1" vertex="1">
          <mxGeometry x="134" y="600" width="138" height="75.46" as="geometry" />
        </mxCell>
        <mxCell id="q9LDl1yz-0mYo0iGjOJ9-18" value="" style="endArrow=none;html=1;entryX=0;entryY=0.5;entryDx=0;entryDy=0;" parent="1" edge="1">
          <mxGeometry width="50" height="50" relative="1" as="geometry">
            <mxPoint x="54" y="632.73" as="sourcePoint" />
            <mxPoint x="134.00000000000023" y="632.2700000000002" as="targetPoint" />
          </mxGeometry>
        </mxCell>
        <mxCell id="q9LDl1yz-0mYo0iGjOJ9-19" value="" style="ellipse;whiteSpace=wrap;html=1;aspect=fixed;strokeWidth=1;fillColor=#000000;" parent="1" vertex="1">
          <mxGeometry x="34" y="622.27" width="20" height="20" as="geometry" />
        </mxCell>
        <mxCell id="q9LDl1yz-0mYo0iGjOJ9-20" value="Nome" style="text;html=1;align=center;verticalAlign=middle;resizable=0;points=[];autosize=1;strokeColor=none;" parent="1" vertex="1">
          <mxGeometry x="-21" y="647.73" width="50" height="20" as="geometry" />
        </mxCell>
        <mxCell id="q9LDl1yz-0mYo0iGjOJ9-21" value="(0,n)" style="text;html=1;align=center;verticalAlign=middle;resizable=0;points=[];autosize=1;strokeColor=none;" parent="1" vertex="1">
          <mxGeometry x="288" y="602.27" width="40" height="20" as="geometry" />
        </mxCell>
        <mxCell id="q9LDl1yz-0mYo0iGjOJ9-22" value="&lt;font style=&quot;font-size: 19px&quot;&gt;Presenta&lt;/font&gt;" style="rhombus;whiteSpace=wrap;html=1;fillColor=#FFFFFF;" parent="1" vertex="1">
          <mxGeometry x="-6.5" y="840.84" width="140.5" height="140" as="geometry" />
        </mxCell>
        <mxCell id="q9LDl1yz-0mYo0iGjOJ9-23" value="" style="endArrow=none;html=1;exitX=0.5;exitY=0;exitDx=0;exitDy=0;entryX=0.406;entryY=1.06;entryDx=0;entryDy=0;entryPerimeter=0;" parent="1" source="q9LDl1yz-0mYo0iGjOJ9-22" edge="1" target="q9LDl1yz-0mYo0iGjOJ9-17">
          <mxGeometry width="50" height="50" relative="1" as="geometry">
            <mxPoint x="430" y="800" as="sourcePoint" />
            <mxPoint x="340" y="680" as="targetPoint" />
            <Array as="points">
              <mxPoint x="190" y="841" />
            </Array>
          </mxGeometry>
        </mxCell>
        <mxCell id="q9LDl1yz-0mYo0iGjOJ9-24" value="(0,n)" style="text;html=1;align=center;verticalAlign=middle;resizable=0;points=[];autosize=1;strokeColor=none;" parent="1" vertex="1">
          <mxGeometry x="208" y="697.73" width="40" height="20" as="geometry" />
        </mxCell>
        <mxCell id="Ymw58HZMhXYJ-UXBoH49-1" value="&lt;font style=&quot;font-size: 16px&quot;&gt;Convoca&lt;/font&gt;" style="rhombus;whiteSpace=wrap;html=1;" vertex="1" parent="1">
          <mxGeometry x="1014.5" y="-10" width="105.5" height="100" as="geometry" />
        </mxCell>
        <mxCell id="Ymw58HZMhXYJ-UXBoH49-2" value="" style="endArrow=none;html=1;exitX=1;exitY=0.5;exitDx=0;exitDy=0;" edge="1" parent="1" source="Ymw58HZMhXYJ-UXBoH49-1">
          <mxGeometry width="50" height="50" relative="1" as="geometry">
            <mxPoint x="840" y="300" as="sourcePoint" />
            <mxPoint x="1190" y="110" as="targetPoint" />
          </mxGeometry>
        </mxCell>
        <mxCell id="Ymw58HZMhXYJ-UXBoH49-3" value="&lt;font style=&quot;font-size: 17px&quot;&gt;Ottiene&lt;/font&gt;" style="rhombus;whiteSpace=wrap;html=1;" vertex="1" parent="1">
          <mxGeometry x="610" y="-10" width="100" height="100" as="geometry" />
        </mxCell>
        <mxCell id="Ymw58HZMhXYJ-UXBoH49-4" value="" style="endArrow=none;html=1;entryX=0;entryY=0.5;entryDx=0;entryDy=0;" edge="1" parent="1" target="Ymw58HZMhXYJ-UXBoH49-3">
          <mxGeometry width="50" height="50" relative="1" as="geometry">
            <mxPoint x="550" y="120" as="sourcePoint" />
            <mxPoint x="890" y="250" as="targetPoint" />
          </mxGeometry>
        </mxCell>
        <mxCell id="Ymw58HZMhXYJ-UXBoH49-5" value="&lt;font style=&quot;font-size: 18px&quot;&gt;Riceve&lt;/font&gt;" style="rhombus;whiteSpace=wrap;html=1;" vertex="1" parent="1">
          <mxGeometry x="640" y="410" width="90" height="100" as="geometry" />
        </mxCell>
        <mxCell id="Ymw58HZMhXYJ-UXBoH49-7" value="&lt;font style=&quot;font-size: 18px&quot;&gt;Eroga&lt;/font&gt;" style="rhombus;whiteSpace=wrap;html=1;" vertex="1" parent="1">
          <mxGeometry x="969" y="439.04" width="100" height="90.96" as="geometry" />
        </mxCell>
        <mxCell id="l8lTGcFNprRqknghlDHU-1" value="(1,1)" style="text;html=1;align=center;verticalAlign=middle;resizable=0;points=[];autosize=1;strokeColor=none;" vertex="1" parent="1">
          <mxGeometry x="740" y="350" width="40" height="20" as="geometry" />
        </mxCell>
        <mxCell id="l8lTGcFNprRqknghlDHU-2" value="(1,1)" style="text;html=1;align=center;verticalAlign=middle;resizable=0;points=[];autosize=1;strokeColor=none;" vertex="1" parent="1">
          <mxGeometry x="929" y="346" width="40" height="20" as="geometry" />
        </mxCell>
        <mxCell id="l8lTGcFNprRqknghlDHU-3" value="(1,1)" style="text;html=1;align=center;verticalAlign=middle;resizable=0;points=[];autosize=1;strokeColor=none;" vertex="1" parent="1">
          <mxGeometry x="925" y="110" width="40" height="20" as="geometry" />
        </mxCell>
        <mxCell id="l8lTGcFNprRqknghlDHU-4" value="(1,1)" style="text;html=1;align=center;verticalAlign=middle;resizable=0;points=[];autosize=1;strokeColor=none;" vertex="1" parent="1">
          <mxGeometry x="740" y="110" width="40" height="20" as="geometry" />
        </mxCell>
        <mxCell id="l8lTGcFNprRqknghlDHU-5" value="" style="endArrow=none;html=1;" edge="1" parent="1">
          <mxGeometry width="50" height="50" relative="1" as="geometry">
            <mxPoint x="1000" y="100" as="sourcePoint" />
            <mxPoint x="720" y="90" as="targetPoint" />
            <Array as="points">
              <mxPoint x="940" y="10" />
              <mxPoint x="780" y="10" />
            </Array>
          </mxGeometry>
        </mxCell>
        <mxCell id="l8lTGcFNprRqknghlDHU-6" value="" style="ellipse;whiteSpace=wrap;html=1;aspect=fixed;strokeWidth=1;fillColor=#000000;" vertex="1" parent="1">
          <mxGeometry x="994.5" y="100" width="20" height="20" as="geometry" />
        </mxCell>
        <mxCell id="l8lTGcFNprRqknghlDHU-7" value="" style="endArrow=none;html=1;entryX=-0.018;entryY=0.825;entryDx=0;entryDy=0;entryPerimeter=0;" edge="1" parent="1" target="0F26rQ8Cb6kZ93_CO29N-58">
          <mxGeometry width="50" height="50" relative="1" as="geometry">
            <mxPoint x="720" y="180" as="sourcePoint" />
            <mxPoint x="820" y="250" as="targetPoint" />
          </mxGeometry>
        </mxCell>
        <mxCell id="l8lTGcFNprRqknghlDHU-8" value="" style="ellipse;whiteSpace=wrap;html=1;aspect=fixed;strokeWidth=1;fillColor=#000000;" vertex="1" parent="1">
          <mxGeometry x="710" y="170" width="20" height="20" as="geometry" />
        </mxCell>
        <mxCell id="l8lTGcFNprRqknghlDHU-9" value="ID" style="text;html=1;align=center;verticalAlign=middle;resizable=0;points=[];autosize=1;strokeColor=none;" vertex="1" parent="1">
          <mxGeometry x="670" y="170" width="30" height="20" as="geometry" />
        </mxCell>
        <mxCell id="l8lTGcFNprRqknghlDHU-11" value="" style="endArrow=none;html=1;" edge="1" parent="1">
          <mxGeometry width="50" height="50" relative="1" as="geometry">
            <mxPoint x="780" y="480" as="sourcePoint" />
            <mxPoint x="950" y="490" as="targetPoint" />
            <Array as="points">
              <mxPoint x="720" y="380" />
              <mxPoint x="755" y="290" />
              <mxPoint x="915" y="290" />
              <mxPoint x="990" y="330" />
              <mxPoint x="990" y="390" />
            </Array>
          </mxGeometry>
        </mxCell>
        <mxCell id="l8lTGcFNprRqknghlDHU-12" value="" style="ellipse;whiteSpace=wrap;html=1;aspect=fixed;strokeWidth=1;fillColor=#000000;" vertex="1" parent="1">
          <mxGeometry x="934.5" y="484.04" width="20" height="20" as="geometry" />
        </mxCell>
        <mxCell id="l8lTGcFNprRqknghlDHU-13" value="" style="endArrow=none;html=1;" edge="1" parent="1">
          <mxGeometry width="50" height="50" relative="1" as="geometry">
            <mxPoint x="890" y="250" as="sourcePoint" />
            <mxPoint x="890" y="310" as="targetPoint" />
          </mxGeometry>
        </mxCell>
        <mxCell id="l8lTGcFNprRqknghlDHU-14" value="" style="ellipse;whiteSpace=wrap;html=1;aspect=fixed;strokeWidth=1;fillColor=#FFFFFF;" vertex="1" parent="1">
          <mxGeometry x="880" y="230" width="20" height="20" as="geometry" />
        </mxCell>
        <mxCell id="l8lTGcFNprRqknghlDHU-15" value="Data" style="text;html=1;align=center;verticalAlign=middle;resizable=0;points=[];autosize=1;strokeColor=none;" vertex="1" parent="1">
          <mxGeometry x="870" y="210" width="40" height="20" as="geometry" />
        </mxCell>
        <mxCell id="l8lTGcFNprRqknghlDHU-16" value="" style="endArrow=none;html=1;exitX=0.15;exitY=0.002;exitDx=0;exitDy=0;exitPerimeter=0;" edge="1" parent="1" source="0F26rQ8Cb6kZ93_CO29N-32">
          <mxGeometry width="50" height="50" relative="1" as="geometry">
            <mxPoint x="809.29" y="617.69" as="sourcePoint" />
            <mxPoint x="800" y="240" as="targetPoint" />
            <Array as="points" />
          </mxGeometry>
        </mxCell>
        <mxCell id="l8lTGcFNprRqknghlDHU-17" value="" style="ellipse;whiteSpace=wrap;html=1;aspect=fixed;strokeWidth=1;fillColor=#FFFFFF;" vertex="1" parent="1">
          <mxGeometry x="785" y="230" width="20" height="20" as="geometry" />
        </mxCell>
        <mxCell id="l8lTGcFNprRqknghlDHU-19" value="Ora" style="text;html=1;align=center;verticalAlign=middle;resizable=0;points=[];autosize=1;strokeColor=none;" vertex="1" parent="1">
          <mxGeometry x="775" y="206" width="40" height="20" as="geometry" />
        </mxCell>
        <mxCell id="l8lTGcFNprRqknghlDHU-21" value="" style="endArrow=none;html=1;entryX=0;entryY=0.5;entryDx=0;entryDy=0;exitX=1;exitY=0.5;exitDx=0;exitDy=0;" edge="1" parent="1" source="Ymw58HZMhXYJ-UXBoH49-5" target="0F26rQ8Cb6kZ93_CO29N-32">
          <mxGeometry width="50" height="50" relative="1" as="geometry">
            <mxPoint x="650" y="560" as="sourcePoint" />
            <mxPoint x="700" y="510" as="targetPoint" />
          </mxGeometry>
        </mxCell>
        <mxCell id="l8lTGcFNprRqknghlDHU-22" value="" style="endArrow=none;html=1;entryX=0;entryY=0.5;entryDx=0;entryDy=0;exitX=1;exitY=0.5;exitDx=0;exitDy=0;" edge="1" parent="1" source="0F26rQ8Cb6kZ93_CO29N-32" target="Ymw58HZMhXYJ-UXBoH49-7">
          <mxGeometry width="50" height="50" relative="1" as="geometry">
            <mxPoint x="650" y="560" as="sourcePoint" />
            <mxPoint x="700" y="510" as="targetPoint" />
          </mxGeometry>
        </mxCell>
        <mxCell id="l8lTGcFNprRqknghlDHU-24" value="" style="endArrow=none;html=1;entryX=0.5;entryY=1;entryDx=0;entryDy=0;exitX=1;exitY=0.5;exitDx=0;exitDy=0;" edge="1" parent="1" source="l8lTGcFNprRqknghlDHU-25" target="0F26rQ8Cb6kZ93_CO29N-32">
          <mxGeometry width="50" height="50" relative="1" as="geometry">
            <mxPoint x="740" y="720" as="sourcePoint" />
            <mxPoint x="700" y="670" as="targetPoint" />
            <Array as="points">
              <mxPoint x="855" y="720" />
            </Array>
          </mxGeometry>
        </mxCell>
        <mxCell id="l8lTGcFNprRqknghlDHU-25" value="&lt;font style=&quot;font-size: 18px&quot;&gt;Utilizza&lt;/font&gt;" style="rhombus;whiteSpace=wrap;html=1;fillColor=#FFFFFF;" vertex="1" parent="1">
          <mxGeometry x="640" y="667.73" width="110" height="110" as="geometry" />
        </mxCell>
        <mxCell id="l8lTGcFNprRqknghlDHU-26" value="" style="endArrow=none;html=1;exitX=0;exitY=0.5;exitDx=0;exitDy=0;entryX=1;entryY=0;entryDx=0;entryDy=0;" edge="1" parent="1" source="l8lTGcFNprRqknghlDHU-25" target="0F26rQ8Cb6kZ93_CO29N-169">
          <mxGeometry width="50" height="50" relative="1" as="geometry">
            <mxPoint x="650" y="720" as="sourcePoint" />
            <mxPoint x="500" y="920" as="targetPoint" />
            <Array as="points">
              <mxPoint x="640" y="925" />
            </Array>
          </mxGeometry>
        </mxCell>
        <mxCell id="l8lTGcFNprRqknghlDHU-27" value="(1,1)" style="text;html=1;align=center;verticalAlign=middle;resizable=0;points=[];autosize=1;strokeColor=none;" vertex="1" parent="1">
          <mxGeometry x="810" y="450" width="40" height="20" as="geometry" />
        </mxCell>
        <mxCell id="l8lTGcFNprRqknghlDHU-28" value="(1,1)" style="text;html=1;align=center;verticalAlign=middle;resizable=0;points=[];autosize=1;strokeColor=none;" vertex="1" parent="1">
          <mxGeometry x="1010" y="930" width="40" height="20" as="geometry" />
        </mxCell>
        <mxCell id="l8lTGcFNprRqknghlDHU-29" value="(1,n)" style="text;html=1;align=center;verticalAlign=middle;resizable=0;points=[];autosize=1;strokeColor=none;" vertex="1" parent="1">
          <mxGeometry x="600" y="890" width="40" height="20" as="geometry" />
        </mxCell>
      </root>
    </mxGraphModel>
  </diagram>
  <diagram id="0ngOcr7wmgXpe5-NHhWI" name="ERiniz">
    <mxGraphModel dx="868" dy="460" grid="1" gridSize="10" guides="1" tooltips="1" connect="1" arrows="1" fold="1" page="1" pageScale="1" pageWidth="1100" pageHeight="850" math="0" shadow="0">
      <root>
        <mxCell id="U-J8aA9xj_iO0n9KjtIR-0" />
        <mxCell id="U-J8aA9xj_iO0n9KjtIR-1" parent="U-J8aA9xj_iO0n9KjtIR-0" />
      </root>
    </mxGraphModel>
  </diagram>
</mxfile>
